<?xml version="1.0" encoding="utf-8"?>
<svg viewBox="73.72 106.026 18 20" xmlns="http://www.w3.org/2000/svg">
  <path d="M 86.72 108.046 C 90.05 108.226 91.72 109.456 91.72 114.026 L 91.72 120.026 C 91.72 124.026 90.72 126.026 85.72 126.026 L 79.72 126.026 C 74.72 126.026 73.72 124.026 73.72 120.026 L 73.72 114.026 C 73.72 109.466 75.39 108.226 78.72 108.046" stroke="black" stroke-width="1.5" stroke-miterlimit="10" stroke-linecap="round" stroke-linejoin="round" style="fill: rgb(255, 255, 255); transform-origin: 82.72px 117.036px;"/>
  <path d="M 78.72 116.226 L 85.72 116.226 M 78.72 120.226 L 83.1 120.226 M 80.72 110.026 L 84.72 110.026 C 86.72 110.026 86.72 109.026 86.72 108.026 C 86.72 106.026 85.72 106.026 84.72 106.026 L 80.72 106.026 C 79.72 106.026 78.72 106.026 78.72 108.026 C 78.72 110.026 79.72 110.026 80.72 110.026 Z" stroke="black" stroke-width="1.5" stroke-miterlimit="10" stroke-linecap="round" stroke-linejoin="round" style="fill: rgb(255, 253, 253); transform-origin: 82.72px 113.126px;"/>
</svg>