<?xml version="1.0" encoding="utf-8"?>
<svg viewBox="288.51 310.4886 30.507 35.8925" xmlns="http://www.w3.org/2000/svg">
  <path d="M 319.017 342.066 L 291.994 346.381 L 288.51 325.038 L 315.533 320.723 L 319.017 342.066 Z" fill="#7D91FA" style="transform-origin: 303.764px 333.552px;"/>
  <path d="M 292.299 330.489 L 313.386 327.12 L 313.173 325.785 L 292.085 329.155 L 292.299 330.489 Z" fill="white" style="transform-origin: 302.735px 328.137px;"/>
  <path d="M 292.908 333.822 L 313.995 330.455 L 313.782 329.121 L 292.695 332.489 L 292.908 333.822 Z" fill="white" style="transform-origin: 303.345px 331.471px;"/>
  <path d="M 293.465 337.368 L 314.553 334.001 L 314.34 332.667 L 293.252 336.034 L 293.465 337.368 Z" fill="white" style="transform-origin: 303.903px 335.018px;"/>
  <path d="M 305.644 338.943 L 294.019 340.8 L 293.804 339.466 L 305.43 337.609 L 305.644 338.943 Z" fill="white" style="transform-origin: 299.724px 339.204px;"/>
  <path d="M 302.095 325.905 L 301.469 322.002 L 302.793 322.002 L 302.149 325.905 L 302.095 325.905 Z" fill="#7D8880" style="transform-origin: 302.131px 323.954px;"/>
  <path d="M 299.213 312.489 L 299.438 312.877 L 300.866 314.181 L 300.154 319.401 L 300.428 321.786 L 301.448 322.364 L 303.385 322.412 L 304.806 321.585 L 303.877 320.084 L 303.349 314.395 L 303.376 313.618 L 304.646 312.843 L 304.802 312.447 L 299.213 312.489 Z" fill="#F06668" style="transform-origin: 302.01px 317.429px;"/>
  <path d="M 304.475 322.085 C 304 322.399 303.419 322.604 302.783 322.673 L 302.569 322.691 C 302.545 322.693 302.521 322.696 302.497 322.696 L 302.3 322.702 C 301.911 322.7 301.534 322.649 301.187 322.547 C 299.887 322.17 298.949 321.161 298.932 319.963 C 298.923 319.292 299.275 319.152 299.936 318.72 L 300.708 314.247 C 300.082 314.035 299.586 313.318 299.332 312.773 C 300.19 313.488 301.197 313.658 301.917 313.665 C 301.942 313.846 302.009 314.359 302.012 314.435 C 302.471 314.437 302.852 314.369 303.117 314.296 L 303.118 314.294 L 303.244 313.504 C 303.807 313.359 304.3 313.126 304.645 312.844 C 304.438 313.311 304.097 313.876 303.662 314.086 C 303.662 314.086 304.216 317.262 304.437 318.593 C 305.152 319.003 305.744 319.176 305.755 319.869 C 305.769 320.762 305.265 321.562 304.475 322.085 Z M 303.131 314.437 C 302.858 314.509 302.475 314.576 302.014 314.574 L 301.983 320.701 C 302.182 320.719 302.383 320.726 302.579 320.71 C 302.996 320.675 303.371 320.554 303.679 320.367 L 303.131 314.437 Z M 304.544 321.659 L 303.723 320.502 C 303.401 320.691 303.016 320.813 302.59 320.848 C 302.384 320.866 302.174 320.856 301.964 320.838 L 301.369 322.142 L 301.365 322.152 C 301.687 322.215 302.025 322.247 302.377 322.242 C 303.201 322.23 303.955 322.02 304.541 321.679 L 304.544 321.659 Z M 302.328 313.515 C 301.607 313.567 300.247 313.503 299.213 312.489 C 299.145 312.359 299.103 312.224 299.102 312.083 C 299.1 311.93 299.141 311.781 299.216 311.639 C 299.564 310.991 300.67 310.508 301.987 310.489 C 303.304 310.472 304.423 310.925 304.788 311.562 C 304.869 311.701 304.913 311.849 304.916 312.003 C 304.918 312.156 304.877 312.306 304.801 312.447 C 304.793 312.471 304.782 312.5 304.772 312.525 C 304.339 313.036 303.354 313.44 302.328 313.515 Z" fill="#E84849" style="transform-origin: 302.344px 316.595px;"/>
</svg>